{
  "accessors": [
    {
      "bufferView": 2,
      "componentType": 5126,
      "count": 65532,
      "max": [
        5.6770920753479,
        6.75239896774292,
        38.22154235839844
      ],
      "min": [
        -6.63108491897583,
        -2.5221660137176514,
        2.561702013015747
      ],
      "type": "VEC3"
    },
    {
      "bufferView": 2,
      "byteOffset": 786384,
      "componentType": 5126,
      "count": 65532,
      "max": [
        1.0,
        0.9999990463256836,
        0.9999728202819824
      ],
      "min": [
        -0.9999998807907104,
        -0.9999996423721313,
        -0.9995585083961487
      ],
      "type": "VEC3"
    },
    {
      "bufferView": 1,
      "componentType": 5126,
      "count": 65532,
      "max": [
        0.9996010065078735,
        0.9997559785842896
      ],
      "min": [
        0.00024399999529123306,
        0.00038300000596791506
      ],
      "type": "VEC2"
    },
    {
      "bufferView": 0,
      "componentType": 5125,
      "count": 315930,
      "type": "SCALAR"
    },
    {
      "bufferView": 2,
      "byteOffset": 1572768,
      "componentType": 5126,
      "count": 65532,
      "max": [
        6.95062780380249,
        6.761053085327148,
        37.9631233215332
      ],
      "min": [
        -6.681124210357666,
        -3.7633841037750244,
        4.403713226318359
      ],
      "type": "VEC3"
    },
    {
      "bufferView": 2,
      "byteOffset": 2359152,
      "componentType": 5126,
      "count": 65532,
      "max": [
        0.9999955892562866,
        0.9999830722808838,
        0.9998650550842285
      ],
      "min": [
        -0.9999867677688599,
        -0.9999954700469971,
        -0.9999066591262817
      ],
      "type": "VEC3"
    },
    {
      "bufferView": 1,
      "byteOffset": 524256,
      "componentType": 5126,
      "count": 65532,
      "max": [
        0.999455988407135,
        0.9997559785842896
      ],
      "min": [
        0.00024399999529123306,
        0.0004360000020824373
      ],
      "type": "VEC2"
    },
    {
      "bufferView": 0,
      "byteOffset": 1263720,
      "componentType": 5125,
      "count": 305262,
      "type": "SCALAR"
    },
    {
      "bufferView": 2,
      "byteOffset": 3145536,
      "componentType": 5126,
      "count": 65532,
      "max": [
        6.783050060272217,
        6.741593837738037,
        38.35759735107422
      ],
      "min": [
        -1.8279269933700562,
        -2.5187740325927734,
        2.578610897064209
      ],
      "type": "VEC3"
    },
    {
      "bufferView": 2,
      "byteOffset": 3931920,
      "componentType": 5126,
      "count": 65532,
      "max": [
        0.9999998807907104,
        0.9999971389770508,
        0.9999841451644897
      ],
      "min": [
        -0.9995939135551453,
        -0.9999985694885254,
        -0.9997355341911316
      ],
      "type": "VEC3"
    },
    {
      "bufferView": 1,
      "byteOffset": 1048512,
      "componentType": 5126,
      "count": 65532,
      "max": [
        0.9995080232620239,
        0.9997559785842896
      ],
      "min": [
        0.00024399999529123306,
        0.00039999998989515007
      ],
      "type": "VEC2"
    },
    {
      "bufferView": 0,
      "byteOffset": 2484768,
      "componentType": 5125,
      "count": 305814,
      "type": "SCALAR"
    },
    {
      "bufferView": 2,
      "byteOffset": 4718304,
      "componentType": 5126,
      "count": 65532,
      "max": [
        6.955514907836914,
        6.629042148590088,
        38.34919738769531
      ],
      "min": [
        -4.766765117645264,
        -2.5221660137176514,
        2.5628058910369873
      ],
      "type": "VEC3"
    },
    {
      "bufferView": 2,
      "byteOffset": 5504688,
      "componentType": 5126,
      "count": 65532,
      "max": [
        0.9999878406524658,
        0.9999873638153076,
        0.9999924898147583
      ],
      "min": [
        -0.9999998807907104,
        -0.9999996423721313,
        -0.9994730353355408
      ],
      "type": "VEC3"
    },
    {
      "bufferView": 1,
      "byteOffset": 1572768,
      "componentType": 5126,
      "count": 65532,
      "max": [
        0.9994540214538574,
        0.9997559785842896
      ],
      "min": [
        0.00024399999529123306,
        0.000375000003259629
      ],
      "type": "VEC2"
    },
    {
      "bufferView": 0,
      "byteOffset": 3708024,
      "componentType": 5125,
      "count": 300693,
      "type": "SCALAR"
    },
    {
      "bufferView": 2,
      "byteOffset": 6291072,
      "componentType": 5126,
      "count": 65532,
      "max": [
        6.955514907836914,
        6.751413822174072,
        35.00700378417969
      ],
      "min": [
        -5.2448930740356445,
        -3.744546890258789,
        2.573012113571167
      ],
      "type": "VEC3"
    },
    {
      "bufferView": 2,
      "byteOffset": 7077456,
      "componentType": 5126,
      "count": 65532,
      "max": [
        0.9999998807907104,
        0.9999988079071045,
        0.9999853372573853
      ],
      "min": [
        -0.9999957084655762,
        -0.9999988079071045,
        -0.9996184706687927
      ],
      "type": "VEC3"
    },
    {
      "bufferView": 1,
      "byteOffset": 2097024,
      "componentType": 5126,
      "count": 65532,
      "max": [
        0.9996070265769958,
        0.9997559785842896
      ],
      "min": [
        0.00024399999529123306,
        0.00037399999564513564
      ],
      "type": "VEC2"
    },
    {
      "bufferView": 0,
      "byteOffset": 4910796,
      "componentType": 5125,
      "count": 255012,
      "type": "SCALAR"
    },
    {
      "bufferView": 2,
      "byteOffset": 7863840,
      "componentType": 5126,
      "count": 64467,
      "max": [
        6.966847896575928,
        5.732181072235107,
        35.039676666259766
      ],
      "min": [
        -6.624034881591797,
        -3.2193849086761475,
        7.47549295425415
      ],
      "type": "VEC3"
    },
    {
      "bufferView": 2,
      "byteOffset": 8637444,
      "componentType": 5126,
      "count": 64467,
      "max": [
        0.9999978542327881,
        0.9999194145202637,
        0.9999728202819824
      ],
      "min": [
        -0.9999396800994873,
        -0.9999884366989136,
        -0.9999885559082031
      ],
      "type": "VEC3"
    },
    {
      "bufferView": 1,
      "byteOffset": 2621280,
      "componentType": 5126,
      "count": 64467,
      "max": [
        0.9995369911193848,
        0.9997559785842896
      ],
      "min": [
        0.00024399999529123306,
        0.00036700000055134296
      ],
      "type": "VEC2"
    },
    {
      "bufferView": 0,
      "byteOffset": 5930844,
      "componentType": 5125,
      "count": 258024,
      "type": "SCALAR"
    },
    {
      "bufferView": 2,
      "byteOffset": 9411048,
      "componentType": 5126,
      "count": 1410,
      "max": [
        5.657926082611084,
        6.23623514175415,
        2.561706066131592
      ],
      "min": [
        -3.064069986343384,
        -2.5155029296875,
        2.561702013015747
      ],
      "type": "VEC3"
    },
    {
      "bufferView": 2,
      "byteOffset": 9427968,
      "componentType": 5126,
      "count": 1410,
      "max": [
        0.024398885667324066,
        0.061201561242341995,
        -0.9913697242736816
      ],
      "min": [
        -0.013100187294185162,
        -0.1310960054397583,
        -1.0
      ],
      "type": "VEC3"
    },
    {
      "bufferView": 1,
      "byteOffset": 3137016,
      "componentType": 5126,
      "count": 1410,
      "max": [
        0.7736489772796631,
        0.6451359987258911
      ],
      "min": [
        0.7063320279121399,
        0.5750809907913208
      ],
      "type": "VEC2"
    },
    {
      "bufferView": 0,
      "byteOffset": 6962940,
      "componentType": 5125,
      "count": 2349,
      "type": "SCALAR"
    }
  ],
  "asset": {
    "extras": {
      "author": "noe-3d.at (https://sketchfab.com/www.noe-3d.at)",
      "license": "CC-BY-NC-4.0 (http://creativecommons.org/licenses/by-nc/4.0/)",
      "source": "https://sketchfab.com/3d-models/hl-markus-6ec5026d48e749e58be8b2eca0cfa0d9",
      "title": "Hl. Markus"
    },
    "generator": "Sketchfab-12.78.0",
    "version": "2.0"
  },
  "bufferViews": [
    {
      "buffer": 0,
      "byteLength": 6972336,
      "name": "floatBufferViews",
      "target": 34963
    },
    {
      "buffer": 0,
      "byteLength": 3148296,
      "byteOffset": 6972336,
      "byteStride": 8,
      "name": "floatBufferViews",
      "target": 34962
    },
    {
      "buffer": 0,
      "byteLength": 9444888,
      "byteOffset": 10120632,
      "byteStride": 12,
      "name": "floatBufferViews",
      "target": 34962
    }
  ],
  "buffers": [
    {
      "byteLength": 19565520,
      "uri": "scene.bin"
    }
  ],
  "images": [
    {
      "uri": "textures/Marcus_O_Material_u1_v1_baseColor.png"
    }
  ],
  "materials": [
    {
      "doubleSided": true,
      "name": "Marcus_O_Material_u1_v1",
      "pbrMetallicRoughness": {
        "baseColorTexture": {
          "index": 0
        },
        "metallicFactor": 0.0
      }
    },
    {
      "doubleSided": true,
      "name": "bottom",
      "pbrMetallicRoughness": {
        "baseColorFactor": [
          0.467202,
          0.467202,
          0.467202,
          1.0
        ],
        "metallicFactor": 0.0
      }
    }
  ],
  "meshes": [
    {
      "name": "Object_0",
      "primitives": [
        {
          "attributes": {
            "NORMAL": 1,
            "POSITION": 0,
            "TEXCOORD_0": 2
          },
          "indices": 3,
          "material": 0,
          "mode": 4
        }
      ]
    },
    {
      "name": "Object_1",
      "primitives": [
        {
          "attributes": {
            "NORMAL": 5,
            "POSITION": 4,
            "TEXCOORD_0": 6
          },
          "indices": 7,
          "material": 0,
          "mode": 4
        }
      ]
    },
    {
      "name": "Object_2",
      "primitives": [
        {
          "attributes": {
            "NORMAL": 9,
            "POSITION": 8,
            "TEXCOORD_0": 10
          },
          "indices": 11,
          "material": 0,
          "mode": 4
        }
      ]
    },
    {
      "name": "Object_3",
      "primitives": [
        {
          "attributes": {
            "NORMAL": 13,
            "POSITION": 12,
            "TEXCOORD_0": 14
          },
          "indices": 15,
          "material": 0,
          "mode": 4
        }
      ]
    },
    {
      "name": "Object_4",
      "primitives": [
        {
          "attributes": {
            "NORMAL": 17,
            "POSITION": 16,
            "TEXCOORD_0": 18
          },
          "indices": 19,
          "material": 0,
          "mode": 4
        }
      ]
    },
    {
      "name": "Object_5",
      "primitives": [
        {
          "attributes": {
            "NORMAL": 21,
            "POSITION": 20,
            "TEXCOORD_0": 22
          },
          "indices": 23,
          "material": 0,
          "mode": 4
        }
      ]
    },
    {
      "name": "Object_6",
      "primitives": [
        {
          "attributes": {
            "NORMAL": 25,
            "POSITION": 24,
            "TEXCOORD_0": 26
          },
          "indices": 27,
          "material": 1,
          "mode": 4
        }
      ]
    }
  ],
  "nodes": [
    {
      "children": [
        1
      ],
      "matrix": [
        0.05659746006131172,
        0.0,
        0.0,
        0.0,
        0.0,
        1.25671606590742e-17,
        -0.05659746006131172,
        0.0,
        0.0,
        0.05659746006131172,
        1.25671606590742e-17,
        0.0,
        0.0,
        0.0,
        0.0,
        1.0
      ],
      "name": "Sketchfab_model"
    },
    {
      "children": [
        2,
        3,
        4,
        5,
        6,
        7,
        8
      ],
      "name": "Marcus_C.obj.cleaner.materialmerger.gles"
    },
    {
      "mesh": 0,
      "name": "Object_2"
    },
    {
      "mesh": 1,
      "name": "Object_3"
    },
    {
      "mesh": 2,
      "name": "Object_4"
    },
    {
      "mesh": 3,
      "name": "Object_5"
    },
    {
      "mesh": 4,
      "name": "Object_6"
    },
    {
      "mesh": 5,
      "name": "Object_7"
    },
    {
      "mesh": 6,
      "name": "Object_8"
    }
  ],
  "samplers": [
    {
      "magFilter": 9729,
      "minFilter": 9987,
      "wrapS": 10497,
      "wrapT": 10497
    }
  ],
  "scene": 0,
  "scenes": [
    {
      "name": "Sketchfab_Scene",
      "nodes": [
        0
      ]
    }
  ],
  "textures": [
    {
      "sampler": 0,
      "source": 0
    }
  ]
}
